<svg xmlns="http://www.w3.org/2000/svg" viewBox="0 0 100 100" width="200" height="200">
  <defs>
    <style>
      .ribbon { fill: #ee6018; stroke: none; }
      .inner { fill: none; stroke: #ffffff; stroke-width: 1.7; stroke-linecap: round; stroke-linejoin: round; }
      .gap { fill: none; stroke: #ffffff; stroke-width: 12.7; stroke-linecap: round; stroke-linejoin: round; }
    </style>
  </defs>

  <!-- Strand A (horizontal, under at crossings) -->
  <path class="gap" d="M 39.8,24.5 L 38.8,23.7 L 37.7,23.0 L 36.5,22.6 L 35.3,22.5 L 34.1,22.6 L 32.8,23.0 L 31.4,23.7 L 30.0,24.5 L 28.6,25.7 L 27.1,27.1 L 25.7,28.6 L 24.5,30.0 L 23.7,31.4 L 23.0,32.8 L 22.6,34.1 L 22.5,35.3 L 22.6,36.5 L 23.0,37.7 L 23.7,38.8 L 24.5,39.8 L 25.6,40.8 L 26.8,41.7 L 28.1,42.4 L 29.4,43.1 L 30.9,43.6 L 32.5,44.1 L 34.2,44.5 L 35.9,44.7 L 37.8,44.9 L 39.8,44.9 L 41.2,45.0 L 42.5,45.1 L 43.7,45.4 L 44.9,45.7 L 45.9,46.2 L 46.9,46.7 L 47.8,47.4 L 48.6,48.2 L 49.3,49.0 L 50.0,50.0 L 50.7,51.0 L 51.4,51.8 L 52.2,52.6 L 53.1,53.3 L 54.1,53.8 L 55.1,54.3 L 56.3,54.6 L 57.5,54.9 L 58.8,55.0 L 60.2,55.1 L 62.2,55.1 L 64.1,55.3 L 65.8,55.5 L 67.5,55.9 L 69.1,56.4 L 70.6,56.9 L 71.9,57.6 L 73.2,58.3 L 74.4,59.2 L 75.5,60.2 L 76.3,61.2 L 77.0,62.3 L 77.4,63.5 L 77.5,64.7 L 77.4,65.9 L 77.0,67.2 L 76.3,68.6 L 75.5,70.0 L 74.3,71.4 L 72.9,72.9 L 71.4,74.3 L 70.0,75.5 L 68.6,76.3 L 67.2,77.0 L 65.9,77.4 L 64.7,77.5 L 63.5,77.4 L 62.3,77.0 L 61.2,76.3 L 60.2,75.5 L 59.2,74.4 L 58.3,73.2 L 57.6,71.9 L 56.9,70.6 L 56.4,69.1 L 55.9,67.5 L 55.5,65.8 L 55.3,64.1 L 55.1,62.2 L 55.1,60.2 L 55.0,58.8 L 54.9,57.5 L 54.6,56.3 L 54.3,55.1 L 53.8,54.1 L 53.3,53.1 L 52.6,52.2 L 51.8,51.4 L 51.0,50.7 L 50.0,50.0 L 49.0,49.3 L 48.2,48.6 L 47.4,47.8 L 46.7,46.9 L 46.2,45.9 L 45.7,44.9 L 45.4,43.7 L 45.1,42.5 L 45.0,41.2 L 44.9,39.8 L 44.9,37.8 L 44.7,35.9 L 44.5,34.2 L 44.1,32.5 L 43.6,30.9 L 43.1,29.4 L 42.4,28.1 L 41.7,26.8 L 40.8,25.6 L 39.8,24.5"/>
  <path class="ribbon" d="M 41.4,22.7 L 40.2,21.6 L 38.7,20.8 L 37.1,20.2 L 35.3,20.0 L 33.6,20.2 L 31.9,20.7 L 30.2,21.5 L 28.6,22.5 L 27.0,23.8 L 25.3,25.3 L 23.8,27.0 L 22.5,28.6 L 21.5,30.2 L 20.7,31.9 L 20.2,33.6 L 20.0,35.3 L 20.2,37.1 L 20.8,38.7 L 21.6,40.2 L 22.8,41.5 L 24.0,42.7 L 25.4,43.7 L 26.9,44.6 L 28.5,45.4 L 30.1,46.0 L 31.9,46.5 L 33.7,46.9 L 35.7,47.2 L 37.7,47.3 L 39.7,47.4 L 41.0,47.4 L 42.1,47.6 L 43.1,47.8 L 44.0,48.0 L 44.8,48.4 L 45.6,48.8 L 46.2,49.3 L 46.8,49.9 L 47.4,50.5 L 47.9,51.4 L 48.7,52.5 L 49.6,53.5 L 50.6,54.5 L 51.7,55.3 L 53.0,56.0 L 54.3,56.6 L 55.7,57.0 L 57.1,57.3 L 58.6,57.5 L 60.1,57.6 L 62.0,57.6 L 63.8,57.8 L 65.4,58.0 L 66.9,58.3 L 68.3,58.7 L 69.6,59.2 L 70.8,59.8 L 71.8,60.4 L 72.8,61.1 L 73.7,61.9 L 74.3,62.7 L 74.7,63.3 L 74.9,64.0 L 75.0,64.7 L 74.9,65.4 L 74.7,66.3 L 74.2,67.4 L 73.4,68.5 L 72.4,69.8 L 71.2,71.2 L 69.8,72.4 L 68.5,73.4 L 67.4,74.2 L 66.3,74.7 L 65.4,74.9 L 64.7,75.0 L 64.0,74.9 L 63.3,74.7 L 62.7,74.3 L 61.9,73.7 L 61.1,72.8 L 60.4,71.8 L 59.8,70.8 L 59.2,69.6 L 58.7,68.3 L 58.3,66.9 L 58.0,65.4 L 57.8,63.8 L 57.6,62.0 L 57.6,60.1 L 57.5,58.6 L 57.3,57.1 L 57.0,55.7 L 56.6,54.3 L 56.0,53.0 L 55.3,51.7 L 54.5,50.6 L 53.5,49.6 L 52.5,48.7 L 51.4,47.9 L 50.5,47.4 L 49.9,46.8 L 49.3,46.2 L 48.8,45.6 L 48.4,44.8 L 48.0,44.0 L 47.8,43.1 L 47.6,42.1 L 47.4,41.0 L 47.4,39.7 L 47.3,37.7 L 47.2,35.7 L 46.9,33.7 L 46.5,31.9 L 46.0,30.1 L 45.4,28.5 L 44.6,26.9 L 43.7,25.4 L 42.7,24.0 L 41.7,22.9 L 38.0,26.2  38.9,27.2  39.6,28.2  40.2,29.2  40.8,30.4  41.3,31.7  41.7,33.1  42.0,34.6  42.2,36.2  42.4,38.0  42.4,39.9  42.5,41.4  42.7,42.9  43.0,44.3  43.4,45.7  44.0,47.0  44.7,48.3  45.5,49.4  46.5,50.4  47.5,51.3  48.6,52.1  49.5,52.6  50.1,53.2  50.7,53.8  51.2,54.4  51.6,55.2  52.0,56.0  52.2,56.9  52.4,57.9  52.6,59.0  52.6,60.3  52.7,62.3  52.8,64.3  53.1,66.3  53.5,68.1  54.0,69.9  54.6,71.5  55.4,73.1  56.3,74.6  57.3,76.0  58.5,77.2  59.8,78.4  61.3,79.2  62.9,79.8  64.7,80.0  66.4,79.8  68.1,79.3  69.8,78.5  71.4,77.5  73.0,76.2  74.7,74.7  76.2,73.0  77.5,71.4  78.5,69.8  79.3,68.1  79.8,66.4  80.0,64.7  79.8,62.9  79.2,61.3  78.4,59.8  77.2,58.5  76.0,57.3  74.6,56.3  73.1,55.4  71.5,54.6  69.9,54.0  68.1,53.5  66.3,53.1  64.3,52.8  62.3,52.7  60.3,52.6  59.0,52.6  57.9,52.4  56.9,52.2  56.0,52.0  55.2,51.6  54.4,51.2  53.8,50.7  53.2,50.1  52.6,49.5  52.1,48.6  51.3,47.5  50.4,46.5  49.4,45.5  48.3,44.7  47.0,44.0  45.7,43.4  44.3,43.0  42.9,42.7  41.4,42.5  39.9,42.4  38.0,42.4  36.2,42.2  34.6,42.0  33.1,41.7  31.7,41.3  30.4,40.8  29.2,40.2  28.2,39.6  27.2,38.9  26.3,38.1  25.7,37.3  25.3,36.7  25.1,36.0  25.0,35.3  25.1,34.6  25.3,33.7  25.8,32.6  26.6,31.5  27.6,30.2  28.8,28.8  30.2,27.6  31.5,26.6  32.6,25.8  33.7,25.3  34.6,25.1  35.3,25.0  36.0,25.1  36.7,25.3  37.3,25.7  38.2,26.4 Z"/>
  <path class="inner" d="M 39.8,24.5 L 38.8,23.7 L 37.7,23.0 L 36.5,22.6 L 35.3,22.5 L 34.1,22.6 L 32.8,23.0 L 31.4,23.7 L 30.0,24.5 L 28.6,25.7 L 27.1,27.1 L 25.7,28.6 L 24.5,30.0 L 23.7,31.4 L 23.0,32.8 L 22.6,34.1 L 22.5,35.3 L 22.6,36.5 L 23.0,37.7 L 23.7,38.8 L 24.5,39.8 L 25.6,40.8 L 26.8,41.7 L 28.1,42.4 L 29.4,43.1 L 30.9,43.6 L 32.5,44.1 L 34.2,44.5 L 35.9,44.7 L 37.8,44.9 L 39.8,44.9 L 41.2,45.0 L 42.5,45.1 L 43.7,45.4 L 44.9,45.7 L 45.9,46.2 L 46.9,46.7 L 47.8,47.4 L 48.6,48.2 L 49.3,49.0 L 50.0,50.0 L 50.7,51.0 L 51.4,51.8 L 52.2,52.6 L 53.1,53.3 L 54.1,53.8 L 55.1,54.3 L 56.3,54.6 L 57.5,54.9 L 58.8,55.0 L 60.2,55.1 L 62.2,55.1 L 64.1,55.3 L 65.8,55.5 L 67.5,55.9 L 69.1,56.4 L 70.6,56.9 L 71.9,57.6 L 73.2,58.3 L 74.4,59.2 L 75.5,60.2 L 76.3,61.2 L 77.0,62.3 L 77.4,63.5 L 77.5,64.7 L 77.4,65.9 L 77.0,67.2 L 76.3,68.6 L 75.5,70.0 L 74.3,71.4 L 72.9,72.9 L 71.4,74.3 L 70.0,75.5 L 68.6,76.3 L 67.2,77.0 L 65.9,77.4 L 64.7,77.5 L 63.5,77.4 L 62.3,77.0 L 61.2,76.3 L 60.2,75.5 L 59.2,74.4 L 58.3,73.2 L 57.6,71.9 L 56.9,70.6 L 56.4,69.1 L 55.9,67.5 L 55.5,65.8 L 55.3,64.1 L 55.1,62.2 L 55.1,60.2 L 55.0,58.8 L 54.9,57.5 L 54.6,56.3 L 54.3,55.1 L 53.8,54.1 L 53.3,53.1 L 52.6,52.2 L 51.8,51.4 L 51.0,50.7 L 50.0,50.0 L 49.0,49.3 L 48.2,48.6 L 47.4,47.8 L 46.7,46.9 L 46.2,45.9 L 45.7,44.9 L 45.4,43.7 L 45.1,42.5 L 45.0,41.2 L 44.9,39.8 L 44.9,37.8 L 44.7,35.9 L 44.5,34.2 L 44.1,32.5 L 43.6,30.9 L 43.1,29.4 L 42.4,28.1 L 41.7,26.8 L 40.8,25.6 L 39.8,24.5"/>

  <!-- Strand B (vertical, over at crossings) -->
  <path class="gap" d="M 60.2,24.5 L 61.2,23.7 L 62.3,23.0 L 63.5,22.6 L 64.7,22.5 L 65.9,22.6 L 67.2,23.0 L 68.6,23.7 L 70.0,24.5 L 71.4,25.7 L 72.9,27.1 L 74.3,28.6 L 75.5,30.0 L 76.3,31.4 L 77.0,32.8 L 77.4,34.1 L 77.5,35.3 L 77.4,36.5 L 77.0,37.7 L 76.3,38.8 L 75.5,39.8 L 74.4,40.8 L 73.2,41.7 L 71.9,42.4 L 70.6,43.1 L 69.1,43.6 L 67.5,44.1 L 65.8,44.5 L 64.1,44.7 L 62.2,44.9 L 60.2,44.9 L 58.8,45.0 L 57.5,45.1 L 56.3,45.4 L 55.1,45.7 L 54.1,46.2 L 53.1,46.7 L 52.2,47.4 L 51.4,48.2 L 50.7,49.0 L 50.0,50.0 L 49.3,51.0 L 48.6,51.8 L 47.8,52.6 L 46.9,53.3 L 45.9,53.8 L 44.9,54.3 L 43.7,54.6 L 42.5,54.9 L 41.2,55.0 L 39.8,55.1 L 37.8,55.1 L 35.9,55.3 L 34.2,55.5 L 32.5,55.9 L 30.9,56.4 L 29.4,56.9 L 28.1,57.6 L 26.8,58.3 L 25.6,59.2 L 24.5,60.2 L 23.7,61.2 L 23.0,62.3 L 22.6,63.5 L 22.5,64.7 L 22.6,65.9 L 23.0,67.2 L 23.7,68.6 L 24.5,70.0 L 25.7,71.4 L 27.1,72.9 L 28.6,74.3 L 30.0,75.5 L 31.4,76.3 L 32.8,77.0 L 34.1,77.4 L 35.3,77.5 L 36.5,77.4 L 37.7,77.0 L 38.8,76.3 L 39.8,75.5 L 40.8,74.4 L 41.7,73.2 L 42.4,71.9 L 43.1,70.6 L 43.6,69.1 L 44.1,67.5 L 44.5,65.8 L 44.7,64.1 L 44.9,62.2 L 44.9,60.2 L 45.0,58.8 L 45.1,57.5 L 45.4,56.3 L 45.7,55.1 L 46.2,54.1 L 46.7,53.1 L 47.4,52.2 L 48.2,51.4 L 49.0,50.7 L 50.0,50.0 L 51.0,49.3 L 51.8,48.6 L 52.6,47.8 L 53.3,46.9 L 53.8,45.9 L 54.3,44.9 L 54.6,43.7 L 54.9,42.5 L 55.0,41.2 L 55.1,39.8 L 55.1,37.8 L 55.3,35.9 L 55.5,34.2 L 55.9,32.5 L 56.4,30.9 L 56.9,29.4 L 57.6,28.1 L 58.3,26.8 L 59.2,25.6 L 60.2,24.5"/>
  <path class="ribbon" d="M 61.8,26.4 L 62.7,25.7 L 63.3,25.3 L 64.0,25.1 L 64.7,25.0 L 65.4,25.1 L 66.3,25.3 L 67.4,25.8 L 68.5,26.6 L 69.8,27.6 L 71.2,28.8 L 72.4,30.2 L 73.4,31.5 L 74.2,32.6 L 74.7,33.7 L 74.9,34.6 L 75.0,35.3 L 74.9,36.0 L 74.7,36.7 L 74.3,37.3 L 73.7,38.1 L 72.8,38.9 L 71.8,39.6 L 70.8,40.2 L 69.6,40.8 L 68.3,41.3 L 66.9,41.7 L 65.4,42.0 L 63.8,42.2 L 62.0,42.4 L 60.1,42.4 L 58.6,42.5 L 57.1,42.7 L 55.7,43.0 L 54.3,43.4 L 53.0,44.0 L 51.7,44.7 L 50.6,45.5 L 49.6,46.5 L 48.7,47.5 L 47.9,48.6 L 47.4,49.5 L 46.8,50.1 L 46.2,50.7 L 45.6,51.2 L 44.8,51.6 L 44.0,52.0 L 43.1,52.2 L 42.1,52.4 L 41.0,52.6 L 39.7,52.6 L 37.7,52.7 L 35.7,52.8 L 33.7,53.1 L 31.9,53.5 L 30.1,54.0 L 28.5,54.6 L 26.9,55.4 L 25.4,56.3 L 24.0,57.3 L 22.8,58.5 L 21.6,59.8 L 20.8,61.3 L 20.2,62.9 L 20.0,64.7 L 20.2,66.4 L 20.7,68.1 L 21.5,69.8 L 22.5,71.4 L 23.8,73.0 L 25.3,74.7 L 27.0,76.2 L 28.6,77.5 L 30.2,78.5 L 31.9,79.3 L 33.6,79.8 L 35.3,80.0 L 37.1,79.8 L 38.7,79.2 L 40.2,78.4 L 41.5,77.2 L 42.7,76.0 L 43.7,74.6 L 44.6,73.1 L 45.4,71.5 L 46.0,69.9 L 46.5,68.1 L 46.9,66.3 L 47.2,64.3 L 47.3,62.3 L 47.4,60.3 L 47.4,59.0 L 47.6,57.9 L 47.8,56.9 L 48.0,56.0 L 48.4,55.2 L 48.8,54.4 L 49.3,53.8 L 49.9,53.2 L 50.5,52.6 L 51.4,52.1 L 52.5,51.3 L 53.5,50.4 L 54.5,49.4 L 55.3,48.3 L 56.0,47.0 L 56.6,45.7 L 57.0,44.3 L 57.3,42.9 L 57.5,41.4 L 57.6,39.9 L 57.6,38.0 L 57.8,36.2 L 58.0,34.6 L 58.3,33.1 L 58.7,31.7 L 59.2,30.4 L 59.8,29.2 L 60.4,28.2 L 61.1,27.2 L 62.0,26.2 L 58.3,22.9  57.3,24.0  56.3,25.4  55.4,26.9  54.6,28.5  54.0,30.1  53.5,31.9  53.1,33.7  52.8,35.7  52.7,37.7  52.6,39.7  52.6,41.0  52.4,42.1  52.2,43.1  52.0,44.0  51.6,44.8  51.2,45.6  50.7,46.2  50.1,46.8  49.5,47.4  48.6,47.9  47.5,48.7  46.5,49.6  45.5,50.6  44.7,51.7  44.0,53.0  43.4,54.3  43.0,55.7  42.7,57.1  42.5,58.6  42.4,60.1  42.4,62.0  42.2,63.8  42.0,65.4  41.7,66.9  41.3,68.3  40.8,69.6  40.2,70.8  39.6,71.8  38.9,72.8  38.1,73.7  37.3,74.3  36.7,74.7  36.0,74.9  35.3,75.0  34.6,74.9  33.7,74.7  32.6,74.2  31.5,73.4  30.2,72.4  28.8,71.2  27.6,69.8  26.6,68.5  25.8,67.4  25.3,66.3  25.1,65.4  25.0,64.7  25.1,64.0  25.3,63.3  25.7,62.7  26.3,61.9  27.2,61.1  28.2,60.4  29.2,59.8  30.4,59.2  31.7,58.7  33.1,58.3  34.6,58.0  36.2,57.8  38.0,57.6  39.9,57.6  41.4,57.5  42.9,57.3  44.3,57.0  45.7,56.6  47.0,56.0  48.3,55.3  49.4,54.5  50.4,53.5  51.3,52.5  52.1,51.4  52.6,50.5  53.2,49.9  53.8,49.3  54.4,48.8  55.2,48.4  56.0,48.0  56.9,47.8  57.9,47.6  59.0,47.4  60.3,47.4  62.3,47.3  64.3,47.2  66.3,46.9  68.1,46.5  69.9,46.0  71.5,45.4  73.1,44.6  74.6,43.7  76.0,42.7  77.2,41.5  78.4,40.2  79.2,38.7  79.8,37.1  80.0,35.3  79.8,33.6  79.3,31.9  78.5,30.2  77.5,28.6  76.2,27.0  74.7,25.3  73.0,23.8  71.4,22.5  69.8,21.5  68.1,20.7  66.4,20.2  64.7,20.0  62.9,20.2  61.3,20.8  59.8,21.6  58.6,22.7 Z"/>
  <path class="inner" d="M 60.2,24.5 L 61.2,23.7 L 62.3,23.0 L 63.5,22.6 L 64.7,22.5 L 65.9,22.6 L 67.2,23.0 L 68.6,23.7 L 70.0,24.5 L 71.4,25.7 L 72.9,27.1 L 74.3,28.6 L 75.5,30.0 L 76.3,31.4 L 77.0,32.8 L 77.4,34.1 L 77.5,35.3 L 77.4,36.5 L 77.0,37.7 L 76.3,38.8 L 75.5,39.8 L 74.4,40.8 L 73.2,41.7 L 71.9,42.4 L 70.6,43.1 L 69.1,43.6 L 67.5,44.1 L 65.8,44.5 L 64.1,44.7 L 62.2,44.9 L 60.2,44.9 L 58.8,45.0 L 57.5,45.1 L 56.3,45.4 L 55.1,45.7 L 54.1,46.2 L 53.1,46.7 L 52.2,47.4 L 51.4,48.2 L 50.7,49.0 L 50.0,50.0 L 49.3,51.0 L 48.6,51.8 L 47.8,52.6 L 46.9,53.3 L 45.9,53.8 L 44.9,54.3 L 43.7,54.6 L 42.5,54.9 L 41.2,55.0 L 39.8,55.1 L 37.8,55.1 L 35.9,55.3 L 34.2,55.5 L 32.5,55.9 L 30.9,56.4 L 29.4,56.9 L 28.1,57.6 L 26.8,58.3 L 25.6,59.2 L 24.5,60.2 L 23.7,61.2 L 23.0,62.3 L 22.6,63.5 L 22.5,64.7 L 22.6,65.9 L 23.0,67.2 L 23.7,68.6 L 24.5,70.0 L 25.7,71.4 L 27.1,72.9 L 28.6,74.3 L 30.0,75.5 L 31.4,76.3 L 32.8,77.0 L 34.1,77.4 L 35.3,77.5 L 36.5,77.4 L 37.7,77.0 L 38.8,76.3 L 39.8,75.5 L 40.8,74.4 L 41.7,73.2 L 42.4,71.9 L 43.1,70.6 L 43.6,69.1 L 44.1,67.5 L 44.5,65.8 L 44.7,64.1 L 44.9,62.2 L 44.9,60.2 L 45.0,58.8 L 45.1,57.5 L 45.4,56.3 L 45.7,55.1 L 46.2,54.1 L 46.7,53.1 L 47.4,52.2 L 48.2,51.4 L 49.0,50.7 L 50.0,50.0 L 51.0,49.3 L 51.8,48.6 L 52.6,47.8 L 53.3,46.9 L 53.8,45.9 L 54.3,44.9 L 54.6,43.7 L 54.9,42.5 L 55.0,41.2 L 55.1,39.8 L 55.1,37.8 L 55.3,35.9 L 55.5,34.2 L 55.9,32.5 L 56.4,30.9 L 56.9,29.4 L 57.6,28.1 L 58.3,26.8 L 59.2,25.6 L 60.2,24.5"/>
</svg>