<svg xmlns="http://www.w3.org/2000/svg" viewBox="0 0 100 100" width="200" height="200">
  <defs>
    <style>
      .ribbon { fill: #ee6018; stroke: none; }
      .inner { fill: none; stroke: #ffffff; stroke-width: 2.1; stroke-linecap: round; stroke-linejoin: round; }
      .gap { fill: none; stroke: #ffffff; stroke-width: 11.3; stroke-linecap: round; stroke-linejoin: round; }
    </style>
  </defs>

  <!-- Strand A (horizontal, under at crossings) -->
  <path class="gap" d="M 39.8,24.5 L 38.8,23.7 L 37.7,23.0 L 36.5,22.6 L 35.3,22.5 L 34.1,22.6 L 32.8,23.0 L 31.4,23.7 L 30.0,24.5 L 28.6,25.7 L 27.1,27.1 L 25.7,28.6 L 24.5,30.0 L 23.7,31.4 L 23.0,32.8 L 22.6,34.1 L 22.5,35.3 L 22.6,36.5 L 23.0,37.7 L 23.7,38.8 L 24.5,39.8 L 25.6,40.8 L 26.8,41.7 L 28.1,42.4 L 29.4,43.1 L 30.9,43.6 L 32.5,44.1 L 34.2,44.5 L 35.9,44.7 L 37.8,44.9 L 39.8,44.9 L 41.2,45.0 L 42.5,45.1 L 43.7,45.4 L 44.9,45.7 L 45.9,46.2 L 46.9,46.7 L 47.8,47.4 L 48.6,48.2 L 49.3,49.0 L 50.0,50.0 L 50.7,51.0 L 51.4,51.8 L 52.2,52.6 L 53.1,53.3 L 54.1,53.8 L 55.1,54.3 L 56.3,54.6 L 57.5,54.9 L 58.8,55.0 L 60.2,55.1 L 62.2,55.1 L 64.1,55.3 L 65.8,55.5 L 67.5,55.9 L 69.1,56.4 L 70.6,56.9 L 71.9,57.6 L 73.2,58.3 L 74.4,59.2 L 75.5,60.2 L 76.3,61.2 L 77.0,62.3 L 77.4,63.5 L 77.5,64.7 L 77.4,65.9 L 77.0,67.2 L 76.3,68.6 L 75.5,70.0 L 74.3,71.4 L 72.9,72.9 L 71.4,74.3 L 70.0,75.5 L 68.6,76.3 L 67.2,77.0 L 65.9,77.4 L 64.7,77.5 L 63.5,77.4 L 62.3,77.0 L 61.2,76.3 L 60.2,75.5 L 59.2,74.4 L 58.3,73.2 L 57.6,71.9 L 56.9,70.6 L 56.4,69.1 L 55.9,67.5 L 55.5,65.8 L 55.3,64.1 L 55.1,62.2 L 55.1,60.2 L 55.0,58.8 L 54.9,57.5 L 54.6,56.3 L 54.3,55.1 L 53.8,54.1 L 53.3,53.1 L 52.6,52.2 L 51.8,51.4 L 51.0,50.7 L 50.0,50.0 L 49.0,49.3 L 48.2,48.6 L 47.4,47.8 L 46.7,46.9 L 46.2,45.9 L 45.7,44.9 L 45.4,43.7 L 45.1,42.5 L 45.0,41.2 L 44.9,39.8 L 44.9,37.8 L 44.7,35.9 L 44.5,34.2 L 44.1,32.5 L 43.6,30.9 L 43.1,29.4 L 42.4,28.1 L 41.7,26.8 L 40.8,25.6 L 39.8,24.5"/>
  <path class="ribbon" d="M 41.8,22.2 L 40.5,21.2 L 38.9,20.3 L 37.2,19.7 L 35.3,19.5 L 33.5,19.7 L 31.7,20.2 L 30.0,21.0 L 28.3,22.1 L 26.6,23.4 L 25.0,25.0 L 23.4,26.6 L 22.1,28.3 L 21.0,30.0 L 20.2,31.7 L 19.7,33.5 L 19.5,35.3 L 19.7,37.2 L 20.3,38.9 L 21.2,40.5 L 22.4,41.9 L 23.7,43.1 L 25.1,44.2 L 26.6,45.1 L 28.2,45.9 L 30.0,46.5 L 31.8,47.0 L 33.6,47.4 L 35.6,47.7 L 37.7,47.9 L 39.7,47.9 L 41.0,48.0 L 42.0,48.1 L 43.0,48.3 L 43.8,48.6 L 44.6,48.9 L 45.3,49.3 L 45.9,49.7 L 46.4,50.3 L 46.9,50.9 L 47.5,51.7 L 48.2,52.8 L 49.2,53.9 L 50.3,54.9 L 51.4,55.8 L 52.7,56.5 L 54.1,57.1 L 55.5,57.6 L 57.0,57.9 L 58.6,58.1 L 60.1,58.1 L 62.0,58.2 L 63.7,58.3 L 65.3,58.5 L 66.8,58.8 L 68.1,59.2 L 69.4,59.7 L 70.5,60.2 L 71.5,60.9 L 72.5,61.6 L 73.3,62.3 L 73.9,63.0 L 74.2,63.6 L 74.4,64.1 L 74.5,64.7 L 74.4,65.3 L 74.2,66.1 L 73.7,67.1 L 73.0,68.2 L 72.0,69.4 L 70.8,70.8 L 69.4,72.0 L 68.2,73.0 L 67.1,73.7 L 66.1,74.2 L 65.3,74.4 L 64.7,74.5 L 64.1,74.4 L 63.6,74.2 L 63.0,73.9 L 62.3,73.3 L 61.6,72.5 L 60.9,71.5 L 60.2,70.5 L 59.7,69.4 L 59.2,68.1 L 58.8,66.8 L 58.5,65.3 L 58.3,63.7 L 58.2,62.0 L 58.1,60.1 L 58.1,58.6 L 57.9,57.0 L 57.6,55.5 L 57.1,54.1 L 56.5,52.7 L 55.8,51.4 L 54.9,50.3 L 53.9,49.2 L 52.8,48.2 L 51.7,47.5 L 50.9,46.9 L 50.3,46.4 L 49.7,45.9 L 49.3,45.3 L 48.9,44.6 L 48.6,43.8 L 48.3,43.0 L 48.1,42.0 L 48.0,41.0 L 47.9,39.7 L 47.9,37.7 L 47.7,35.6 L 47.4,33.6 L 47.0,31.8 L 46.5,30.0 L 45.9,28.2 L 45.1,26.6 L 44.2,25.1 L 43.1,23.7 L 42.1,22.5 L 37.6,26.6  38.4,27.5  39.1,28.5  39.8,29.5  40.3,30.6  40.8,31.9  41.2,33.2  41.5,34.7  41.7,36.3  41.8,38.0  41.9,39.9  41.9,41.4  42.1,43.0  42.4,44.5  42.9,45.9  43.5,47.3  44.2,48.6  45.1,49.7  46.1,50.8  47.2,51.8  48.3,52.5  49.1,53.1  49.7,53.6  50.3,54.1  50.7,54.7  51.1,55.4  51.4,56.2  51.7,57.0  51.9,58.0  52.0,59.0  52.1,60.3  52.1,62.3  52.3,64.4  52.6,66.4  53.0,68.2  53.5,70.0  54.1,71.8  54.9,73.4  55.8,74.9  56.9,76.3  58.1,77.6  59.5,78.8  61.1,79.7  62.8,80.3  64.7,80.5  66.5,80.3  68.3,79.8  70.0,79.0  71.7,77.9  73.4,76.6  75.0,75.0  76.6,73.4  77.9,71.7  79.0,70.0  79.8,68.3  80.3,66.5  80.5,64.7  80.3,62.8  79.7,61.1  78.8,59.5  77.6,58.1  76.3,56.9  74.9,55.8  73.4,54.9  71.8,54.1  70.0,53.5  68.2,53.0  66.4,52.6  64.4,52.3  62.3,52.1  60.3,52.1  59.0,52.0  58.0,51.9  57.0,51.7  56.2,51.4  55.4,51.1  54.7,50.7  54.1,50.3  53.6,49.7  53.1,49.1  52.5,48.3  51.8,47.2  50.8,46.1  49.7,45.1  48.6,44.2  47.3,43.5  45.9,42.9  44.5,42.4  43.0,42.1  41.4,41.9  39.9,41.9  38.0,41.8  36.3,41.7  34.7,41.5  33.2,41.2  31.9,40.8  30.6,40.3  29.5,39.8  28.5,39.1  27.5,38.4  26.7,37.7  26.1,37.0  25.8,36.4  25.6,35.9  25.5,35.3  25.6,34.7  25.8,33.9  26.3,32.9  27.0,31.8  28.0,30.6  29.2,29.2  30.6,28.0  31.8,27.0  32.9,26.3  33.9,25.8  34.7,25.6  35.3,25.5  35.9,25.6  36.4,25.8  37.0,26.1  37.9,26.8 Z"/>
  <path class="inner" d="M 39.8,24.5 L 38.8,23.7 L 37.7,23.0 L 36.5,22.6 L 35.3,22.5 L 34.1,22.6 L 32.8,23.0 L 31.4,23.7 L 30.0,24.5 L 28.6,25.7 L 27.1,27.1 L 25.7,28.6 L 24.5,30.0 L 23.7,31.4 L 23.0,32.8 L 22.6,34.1 L 22.5,35.3 L 22.6,36.5 L 23.0,37.7 L 23.7,38.8 L 24.5,39.8 L 25.6,40.8 L 26.8,41.7 L 28.1,42.4 L 29.4,43.1 L 30.9,43.6 L 32.5,44.1 L 34.2,44.5 L 35.9,44.7 L 37.8,44.9 L 39.8,44.9 L 41.2,45.0 L 42.5,45.1 L 43.7,45.4 L 44.9,45.7 L 45.9,46.2 L 46.9,46.7 L 47.8,47.4 L 48.6,48.2 L 49.3,49.0 L 50.0,50.0 L 50.7,51.0 L 51.4,51.8 L 52.2,52.6 L 53.1,53.3 L 54.1,53.8 L 55.1,54.3 L 56.3,54.6 L 57.5,54.9 L 58.8,55.0 L 60.2,55.1 L 62.2,55.1 L 64.1,55.3 L 65.8,55.5 L 67.5,55.9 L 69.1,56.4 L 70.6,56.9 L 71.9,57.6 L 73.2,58.3 L 74.4,59.2 L 75.5,60.2 L 76.3,61.2 L 77.0,62.3 L 77.4,63.5 L 77.5,64.7 L 77.4,65.9 L 77.0,67.2 L 76.3,68.6 L 75.5,70.0 L 74.3,71.4 L 72.9,72.9 L 71.4,74.3 L 70.0,75.5 L 68.6,76.3 L 67.2,77.0 L 65.9,77.4 L 64.7,77.5 L 63.5,77.4 L 62.3,77.0 L 61.2,76.3 L 60.2,75.5 L 59.2,74.4 L 58.3,73.2 L 57.6,71.9 L 56.9,70.6 L 56.4,69.1 L 55.9,67.5 L 55.5,65.8 L 55.3,64.1 L 55.1,62.2 L 55.1,60.2 L 55.0,58.8 L 54.9,57.5 L 54.6,56.3 L 54.3,55.1 L 53.8,54.1 L 53.3,53.1 L 52.6,52.2 L 51.8,51.4 L 51.0,50.7 L 50.0,50.0 L 49.0,49.3 L 48.2,48.6 L 47.4,47.8 L 46.7,46.9 L 46.2,45.9 L 45.7,44.9 L 45.4,43.7 L 45.1,42.5 L 45.0,41.2 L 44.9,39.8 L 44.9,37.8 L 44.7,35.9 L 44.5,34.2 L 44.1,32.5 L 43.6,30.9 L 43.1,29.4 L 42.4,28.1 L 41.7,26.8 L 40.8,25.6 L 39.8,24.5"/>

  <!-- Strand B (vertical, over at crossings) -->
  <path class="gap" d="M 60.2,24.5 L 61.2,23.7 L 62.3,23.0 L 63.5,22.6 L 64.7,22.5 L 65.9,22.6 L 67.2,23.0 L 68.6,23.7 L 70.0,24.5 L 71.4,25.7 L 72.9,27.1 L 74.3,28.6 L 75.5,30.0 L 76.3,31.4 L 77.0,32.8 L 77.4,34.1 L 77.5,35.3 L 77.4,36.5 L 77.0,37.7 L 76.3,38.8 L 75.5,39.8 L 74.4,40.8 L 73.2,41.7 L 71.9,42.4 L 70.6,43.1 L 69.1,43.6 L 67.5,44.1 L 65.8,44.5 L 64.1,44.7 L 62.2,44.9 L 60.2,44.9 L 58.8,45.0 L 57.5,45.1 L 56.3,45.4 L 55.1,45.7 L 54.1,46.2 L 53.1,46.7 L 52.2,47.4 L 51.4,48.2 L 50.7,49.0 L 50.0,50.0 L 49.3,51.0 L 48.6,51.8 L 47.8,52.6 L 46.9,53.3 L 45.9,53.8 L 44.9,54.3 L 43.7,54.6 L 42.5,54.9 L 41.2,55.0 L 39.8,55.1 L 37.8,55.1 L 35.9,55.3 L 34.2,55.5 L 32.5,55.9 L 30.9,56.4 L 29.4,56.9 L 28.1,57.6 L 26.8,58.3 L 25.6,59.2 L 24.5,60.2 L 23.7,61.2 L 23.0,62.3 L 22.6,63.5 L 22.5,64.7 L 22.6,65.9 L 23.0,67.2 L 23.7,68.6 L 24.5,70.0 L 25.7,71.4 L 27.1,72.9 L 28.6,74.3 L 30.0,75.5 L 31.4,76.3 L 32.8,77.0 L 34.1,77.4 L 35.3,77.5 L 36.5,77.4 L 37.7,77.0 L 38.8,76.3 L 39.8,75.5 L 40.8,74.4 L 41.7,73.2 L 42.4,71.9 L 43.1,70.6 L 43.6,69.1 L 44.1,67.5 L 44.5,65.8 L 44.7,64.1 L 44.9,62.2 L 44.9,60.2 L 45.0,58.8 L 45.1,57.5 L 45.4,56.3 L 45.7,55.1 L 46.2,54.1 L 46.7,53.1 L 47.4,52.2 L 48.2,51.4 L 49.0,50.7 L 50.0,50.0 L 51.0,49.3 L 51.8,48.6 L 52.6,47.8 L 53.3,46.9 L 53.8,45.9 L 54.3,44.9 L 54.6,43.7 L 54.9,42.5 L 55.0,41.2 L 55.1,39.8 L 55.1,37.8 L 55.3,35.9 L 55.5,34.2 L 55.9,32.5 L 56.4,30.9 L 56.9,29.4 L 57.6,28.1 L 58.3,26.8 L 59.2,25.6 L 60.2,24.5"/>
  <path class="ribbon" d="M 62.1,26.8 L 63.0,26.1 L 63.6,25.8 L 64.1,25.6 L 64.7,25.5 L 65.3,25.6 L 66.1,25.8 L 67.1,26.3 L 68.2,27.0 L 69.4,28.0 L 70.8,29.2 L 72.0,30.6 L 73.0,31.8 L 73.7,32.9 L 74.2,33.9 L 74.4,34.7 L 74.5,35.3 L 74.4,35.9 L 74.2,36.4 L 73.9,37.0 L 73.3,37.7 L 72.5,38.4 L 71.5,39.1 L 70.5,39.8 L 69.4,40.3 L 68.1,40.8 L 66.8,41.2 L 65.3,41.5 L 63.7,41.7 L 62.0,41.8 L 60.1,41.9 L 58.6,41.9 L 57.0,42.1 L 55.5,42.4 L 54.1,42.9 L 52.7,43.5 L 51.4,44.2 L 50.3,45.1 L 49.2,46.1 L 48.2,47.2 L 47.5,48.3 L 46.9,49.1 L 46.4,49.7 L 45.9,50.3 L 45.3,50.7 L 44.6,51.1 L 43.8,51.4 L 43.0,51.7 L 42.0,51.9 L 41.0,52.0 L 39.7,52.1 L 37.7,52.1 L 35.6,52.3 L 33.6,52.6 L 31.8,53.0 L 30.0,53.5 L 28.2,54.1 L 26.6,54.9 L 25.1,55.8 L 23.7,56.9 L 22.4,58.1 L 21.2,59.5 L 20.3,61.1 L 19.7,62.8 L 19.5,64.7 L 19.7,66.5 L 20.2,68.3 L 21.0,70.0 L 22.1,71.7 L 23.4,73.4 L 25.0,75.0 L 26.6,76.6 L 28.3,77.9 L 30.0,79.0 L 31.7,79.8 L 33.5,80.3 L 35.3,80.5 L 37.2,80.3 L 38.9,79.7 L 40.5,78.8 L 41.9,77.6 L 43.1,76.3 L 44.2,74.9 L 45.1,73.4 L 45.9,71.8 L 46.5,70.0 L 47.0,68.2 L 47.4,66.4 L 47.7,64.4 L 47.9,62.3 L 47.9,60.3 L 48.0,59.0 L 48.1,58.0 L 48.3,57.0 L 48.6,56.2 L 48.9,55.4 L 49.3,54.7 L 49.7,54.1 L 50.3,53.6 L 50.9,53.1 L 51.7,52.5 L 52.8,51.8 L 53.9,50.8 L 54.9,49.7 L 55.8,48.6 L 56.5,47.3 L 57.1,45.9 L 57.6,44.5 L 57.9,43.0 L 58.1,41.4 L 58.1,39.9 L 58.2,38.0 L 58.3,36.3 L 58.5,34.7 L 58.8,33.2 L 59.2,31.9 L 59.7,30.6 L 60.2,29.5 L 60.9,28.5 L 61.6,27.5 L 62.4,26.6 L 57.9,22.5  56.9,23.7  55.8,25.1  54.9,26.6  54.1,28.2  53.5,30.0  53.0,31.8  52.6,33.6  52.3,35.6  52.1,37.7  52.1,39.7  52.0,41.0  51.9,42.0  51.7,43.0  51.4,43.8  51.1,44.6  50.7,45.3  50.3,45.9  49.7,46.4  49.1,46.9  48.3,47.5  47.2,48.2  46.1,49.2  45.1,50.3  44.2,51.4  43.5,52.7  42.9,54.1  42.4,55.5  42.1,57.0  41.9,58.6  41.9,60.1  41.8,62.0  41.7,63.7  41.5,65.3  41.2,66.8  40.8,68.1  40.3,69.4  39.8,70.5  39.1,71.5  38.4,72.5  37.7,73.3  37.0,73.9  36.4,74.2  35.9,74.4  35.3,74.5  34.7,74.4  33.9,74.2  32.9,73.7  31.8,73.0  30.6,72.0  29.2,70.8  28.0,69.4  27.0,68.2  26.3,67.1  25.8,66.1  25.6,65.3  25.5,64.7  25.6,64.1  25.8,63.6  26.1,63.0  26.7,62.3  27.5,61.6  28.5,60.9  29.5,60.2  30.6,59.7  31.9,59.2  33.2,58.8  34.7,58.5  36.3,58.3  38.0,58.2  39.9,58.1  41.4,58.1  43.0,57.9  44.5,57.6  45.9,57.1  47.3,56.5  48.6,55.8  49.7,54.9  50.8,53.9  51.8,52.8  52.5,51.7  53.1,50.9  53.6,50.3  54.1,49.7  54.7,49.3  55.4,48.9  56.2,48.6  57.0,48.3  58.0,48.1  59.0,48.0  60.3,47.9  62.3,47.9  64.4,47.7  66.4,47.4  68.2,47.0  70.0,46.5  71.8,45.9  73.4,45.1  74.9,44.2  76.3,43.1  77.6,41.9  78.8,40.5  79.7,38.9  80.3,37.2  80.5,35.3  80.3,33.5  79.8,31.7  79.0,30.0  77.9,28.3  76.6,26.6  75.0,25.0  73.4,23.4  71.7,22.1  70.0,21.0  68.3,20.2  66.5,19.7  64.7,19.5  62.8,19.7  61.1,20.3  59.5,21.2  58.2,22.2 Z"/>
  <path class="inner" d="M 60.2,24.5 L 61.2,23.7 L 62.3,23.0 L 63.5,22.6 L 64.7,22.5 L 65.9,22.6 L 67.2,23.0 L 68.6,23.7 L 70.0,24.5 L 71.4,25.7 L 72.9,27.1 L 74.3,28.6 L 75.5,30.0 L 76.3,31.4 L 77.0,32.8 L 77.4,34.1 L 77.5,35.3 L 77.4,36.5 L 77.0,37.7 L 76.3,38.8 L 75.5,39.8 L 74.4,40.8 L 73.2,41.7 L 71.9,42.4 L 70.6,43.1 L 69.1,43.6 L 67.5,44.1 L 65.8,44.5 L 64.1,44.7 L 62.2,44.9 L 60.2,44.9 L 58.8,45.0 L 57.5,45.1 L 56.3,45.4 L 55.1,45.7 L 54.1,46.2 L 53.1,46.7 L 52.2,47.4 L 51.4,48.2 L 50.7,49.0 L 50.0,50.0 L 49.3,51.0 L 48.6,51.8 L 47.8,52.6 L 46.9,53.3 L 45.9,53.8 L 44.9,54.3 L 43.7,54.6 L 42.5,54.9 L 41.2,55.0 L 39.8,55.1 L 37.8,55.1 L 35.9,55.3 L 34.2,55.5 L 32.5,55.9 L 30.9,56.4 L 29.4,56.9 L 28.1,57.6 L 26.8,58.3 L 25.6,59.2 L 24.5,60.2 L 23.7,61.2 L 23.0,62.3 L 22.6,63.5 L 22.5,64.7 L 22.6,65.9 L 23.0,67.2 L 23.7,68.6 L 24.5,70.0 L 25.7,71.4 L 27.1,72.9 L 28.6,74.3 L 30.0,75.5 L 31.4,76.3 L 32.8,77.0 L 34.1,77.4 L 35.3,77.5 L 36.5,77.4 L 37.7,77.0 L 38.8,76.3 L 39.8,75.5 L 40.8,74.4 L 41.7,73.2 L 42.4,71.9 L 43.1,70.6 L 43.6,69.1 L 44.1,67.5 L 44.5,65.8 L 44.7,64.1 L 44.9,62.2 L 44.9,60.2 L 45.0,58.8 L 45.1,57.5 L 45.4,56.3 L 45.7,55.1 L 46.2,54.1 L 46.7,53.1 L 47.4,52.2 L 48.2,51.4 L 49.0,50.7 L 50.0,50.0 L 51.0,49.3 L 51.8,48.6 L 52.6,47.8 L 53.3,46.9 L 53.8,45.9 L 54.3,44.9 L 54.6,43.7 L 54.9,42.5 L 55.0,41.2 L 55.1,39.8 L 55.1,37.8 L 55.3,35.9 L 55.5,34.2 L 55.9,32.5 L 56.4,30.9 L 56.9,29.4 L 57.6,28.1 L 58.3,26.8 L 59.2,25.6 L 60.2,24.5"/>
</svg>