<svg xmlns="http://www.w3.org/2000/svg" viewBox="0 0 120 120" width="120" height="120">
  <!--
    Carrick Bend Logo - Foremost.ai
    Two interlocking loops forming unified knot
    Color: #ee6018 (Foremost electric orange)
  -->

  <defs>
    <style>
      .strand {
        fill: none;
        stroke: #ee6018;
        stroke-width: 7;
        stroke-linecap: round;
        stroke-linejoin: round;
      }
      .strand-bg {
        fill: none;
        stroke: #ffffff;
        stroke-width: 11;
        stroke-linecap: round;
        stroke-linejoin: round;
      }
    </style>
  </defs>

  <g transform="translate(60,60)">
    <!--
      Carrick bend structure:
      - Strand A: enters top-left, loops around
      - Strand B: enters top-right, loops around
      - They interweave at 4 crossing points
    -->

    <!-- STRAND A (Loop 1) - Background knockout for crossings where A goes UNDER -->
    <path class="strand-bg" d="
      M -40,-15
      C -30,-15 -25,-25 -15,-25
      C 0,-25 0,-10 0,0
      C 0,10 0,25 15,25
      C 25,25 30,15 40,15
    "/>

    <!-- STRAND A (Loop 1) - Colored stroke -->
    <path class="strand" d="
      M -40,-15
      C -30,-15 -25,-25 -15,-25
      C 0,-25 0,-10 0,0
      C 0,10 0,25 15,25
      C 25,25 30,15 40,15
    "/>

    <!-- STRAND A Lower half - Background -->
    <path class="strand-bg" d="
      M 40,15
      C 40,30 25,40 15,40
      C 0,40 -10,25 -15,15
      C -20,5 -25,-5 -40,-15
    " transform="rotate(180)"/>

    <!-- STRAND A Lower half - Colored -->
    <path class="strand" d="
      M 40,15
      C 40,30 25,40 15,40
      C 0,40 -10,25 -15,15
      C -20,5 -25,-5 -40,-15
    " transform="rotate(180)"/>

    <!-- STRAND B (Loop 2) - Background knockout -->
    <path class="strand-bg" d="
      M -15,-40
      C -15,-30 -25,-25 -25,-15
      C -25,0 -10,0 0,0
      C 10,0 25,0 25,15
      C 25,25 15,30 15,40
    "/>

    <!-- STRAND B (Loop 2) - Colored stroke -->
    <path class="strand" d="
      M -15,-40
      C -15,-30 -25,-25 -25,-15
      C -25,0 -10,0 0,0
      C 10,0 25,0 25,15
      C 25,25 15,30 15,40
    "/>

    <!-- STRAND B Right half - Background -->
    <path class="strand-bg" d="
      M 15,40
      C 15,40 25,25 25,15
      C 25,0 10,0 0,0
      C -10,0 -25,0 -25,-15
      C -25,-25 -15,-30 -15,-40
    " transform="rotate(180)"/>

    <!-- STRAND B Right half - Colored -->
    <path class="strand" d="
      M 15,40
      C 15,40 25,25 25,15
      C 25,0 10,0 0,0
      C -10,0 -25,0 -25,-15
      C -25,-25 -15,-30 -15,-40
    " transform="rotate(180)"/>
  </g>
</svg>
